# Blender v2.82 (sub 7) OBJ File: ''
# www.blender.org
o uploads_files_48614_Office_Drink_Machines
v 42.197582 0.000000 0.245520
v 43.640541 0.000000 2.744800
v 43.640541 15.891800 2.744799
v 42.197582 15.891800 0.245519
v 46.526459 0.000000 2.744800
v 46.526459 15.891800 2.744799
v 47.969421 0.000000 0.245520
v 47.969421 15.891800 0.245519
v 46.526459 -0.000000 -2.253760
v 46.526459 15.891800 -2.253761
v 43.640541 -0.000000 -2.253760
v 43.640541 15.891800 -2.253761
v 44.218201 16.406120 1.744259
v 43.352901 16.406120 0.245519
v 45.948803 16.406120 1.744259
v 46.814098 16.406120 0.245519
v 45.948803 16.406120 -1.253221
v 44.218201 16.406120 -1.253221
v 42.365360 17.184700 0.245519
v 43.730240 17.184700 2.609559
v 43.730240 23.646460 2.609559
v 42.365360 23.646460 0.245519
v 46.460003 17.184700 2.609559
v 46.460003 23.646460 2.609559
v 47.824860 17.184700 0.245519
v 47.824860 23.646460 0.245519
v 46.460003 17.184700 -2.118521
v 46.460003 23.646460 -2.118521
v 43.730240 17.184700 -2.118521
v 43.730240 23.646460 -2.118521
v 44.175243 24.268801 1.838799
v 46.014999 24.268801 1.838799
v 46.934879 24.268801 0.245519
v 44.175243 24.268801 -1.347761
v 46.014999 24.268801 -1.347761
v 43.255360 24.268801 0.245519
v 43.549160 16.378180 0.245519
v 44.322140 16.378180 1.584359
v 44.322140 16.378180 -1.093321
v 45.868099 16.378180 -1.093321
v 46.641079 16.378180 0.245519
v 45.868099 16.378180 1.584359
v 9.763600 0.000001 12.456920
v 9.763600 -0.000000 -1.543080
v 33.763599 -0.000000 -1.543080
v 33.763599 0.000001 12.456920
v 9.763600 36.000000 12.456918
v 33.763599 36.000000 12.456918
v 33.763599 36.000000 -1.543082
v 9.763600 36.000000 -1.543082
v -22.941921 0.000001 11.922481
v -22.941921 -0.000000 -2.077520
v 1.058080 -0.000000 -2.077500
v 1.058080 0.000001 11.922500
v -22.941921 36.000000 11.922479
v 1.058080 36.000000 11.922498
v 1.058080 36.000000 -2.077502
v -22.941921 36.000000 -2.077522
v -49.272301 0.000000 11.329380
v -49.272301 -0.000000 -2.670620
v -31.019220 -0.000000 -2.670620
v -31.019220 0.000000 11.329380
v -49.272301 36.000000 11.329378
v -31.019220 36.000000 11.329378
v -31.019220 36.000000 -2.670622
v -49.272301 36.000000 -2.670622
vt 0.547800 0.051600
vt 0.608100 0.935900
vt 0.608700 0.076900
vt 0.411600 0.051600
vt 0.547800 0.937000
vt 0.343400 0.078300
vt 0.411600 0.937000
vt 0.105500 0.051600
vt 0.037400 0.937000
vt 0.040300 0.078300
vt 0.241800 0.051600
vt 0.105500 0.937000
vt 0.307000 0.076900
vt 0.241800 0.937000
vt 2.087400 0.262400
vt 1.221300 0.262400
vt 1.654400 1.012400
vt 1.221300 0.762400
vt 2.087400 0.762400
vt 0.220000 0.951000
vt 0.230400 0.968200
vt 0.272000 0.951000
vt 0.116000 0.951000
vt 0.199200 0.968200
vt 0.064000 0.951000
vt 0.136800 0.968200
vt 0.136800 0.968200
vt 0.105700 0.968200
vt 0.116000 0.951000
vt 0.199200 0.968200
vt 0.220000 0.951000
vt 0.779100 0.572400
vt 0.688800 0.936100
vt 0.688800 0.572400
vt 0.867100 0.572400
vt 0.779100 0.936100
vt 0.957400 0.572400
vt 0.867100 0.936100
vt 0.780400 0.572000
vt 0.689200 0.936400
vt 0.689200 0.572000
vt 0.868100 0.572000
vt 0.780400 0.936400
vt 0.959300 0.572000
vt 0.868100 0.936400
vt 0.838400 0.908500
vt 0.795200 0.889300
vt 0.838400 0.870100
vt 0.809600 0.870100
vt 0.852800 0.889300
vt 0.732600 0.971100
vt 0.793400 0.971100
vt 0.957400 0.936100
vt 0.852800 0.971100
vt 0.794700 0.971500
vt 0.733200 0.971500
vt 0.915300 0.971500
vt 0.853800 0.971500
vt 0.747000 0.527000
vt 0.798200 0.527000
vt 0.849100 0.526500
vt 0.900800 0.526500
vt 0.799400 0.526500
vt 0.848000 0.527000
vt 0.899200 0.527000
vt 0.343400 0.937000
vt 0.302100 0.935900
vt 1.654400 0.012400
vt 0.959300 0.936400
vt 0.809600 0.908500
vt 0.913600 0.971100
vt 0.747800 0.526500
vt 0.519600 0.994400
vt 0.985500 0.777600
vt 0.519600 0.777600
vt 0.985500 0.777600
vt 0.519600 0.994400
vt 0.519600 0.777600
vt 0.728800 0.009400
vt 0.531500 0.751800
vt 0.531500 0.009400
vt 0.993400 0.006500
vt 0.756000 0.758800
vt 0.756000 0.006500
vt 0.506700 0.008600
vt 0.009100 0.994000
vt 0.009100 0.008600
vt 0.756000 0.006500
vt 0.993400 0.758800
vt 0.993400 0.006500
vt 0.985500 0.994400
vt 0.985500 0.994400
vt 0.728800 0.751800
vt 0.993400 0.758800
vt 0.506700 0.994000
vt 0.756000 0.758800
vt 0.519600 0.777600
vt 0.985500 0.994400
vt 0.985500 0.777600
vt 0.519600 0.777600
vt 0.985500 0.994400
vt 0.519600 0.994400
vt 0.728800 0.009400
vt 0.531500 0.751800
vt 0.531500 0.009400
vt 0.993400 0.006500
vt 0.756000 0.758800
vt 0.756000 0.006500
vt 0.506700 0.008600
vt 0.009100 0.994000
vt 0.009100 0.008600
vt 0.756000 0.006500
vt 0.993400 0.758800
vt 0.993400 0.006500
vt 0.519600 0.994400
vt 0.985500 0.777600
vt 0.728800 0.751800
vt 0.993400 0.758800
vt 0.506700 0.994000
vt 0.756000 0.758800
vt 0.519600 0.994400
vt 0.985500 0.777600
vt 0.519600 0.777600
vt 0.985500 0.777600
vt 0.519600 0.994400
vt 0.519600 0.777600
vt 0.728800 0.009400
vt 0.531500 0.751800
vt 0.531500 0.009400
vt 0.993400 0.006500
vt 0.756000 0.758800
vt 0.756000 0.006500
vt 0.506700 0.018800
vt 0.009100 0.991500
vt 0.009100 0.018800
vt 0.756000 0.006500
vt 0.993400 0.758800
vt 0.993400 0.006500
vt 0.985500 0.994400
vt 0.985500 0.994400
vt 0.728800 0.751800
vt 0.993400 0.758800
vt 0.506700 0.991500
vt 0.756000 0.758800
vn -0.3962 -0.6100 0.6862
vn -0.8786 0.4775 -0.0000
vn -0.7924 -0.6100 0.0000
vn 0.3962 -0.6100 0.6862
vn -0.4393 0.4775 0.7609
vn 0.7924 -0.6100 -0.0000
vn 0.4393 0.4775 0.7609
vn 0.3962 -0.6100 -0.6862
vn 0.8786 0.4775 0.0000
vn -0.3962 -0.6100 -0.6862
vn 0.4393 0.4775 -0.7609
vn -0.4393 0.4775 -0.7609
vn -0.4067 0.9136 -0.0000
vn -0.2033 0.9136 0.3522
vn 0.2033 0.9136 0.3522
vn 0.2033 0.9136 -0.3522
vn 0.4067 0.9136 0.0000
vn -0.2033 0.9136 -0.3522
vn -0.4549 -0.4149 0.7880
vn -0.9119 0.4105 0.0000
vn -0.9099 -0.4149 0.0000
vn 0.4549 -0.4149 0.7880
vn -0.4559 0.4105 0.7897
vn 0.9099 -0.4149 -0.0000
vn 0.4559 0.4105 0.7897
vn 0.4549 -0.4149 -0.7880
vn 0.9119 0.4105 0.0000
vn -0.4549 -0.4149 -0.7880
vn 0.4559 0.4105 -0.7897
vn -0.4559 0.4105 -0.7897
vn -0.1926 0.9228 0.3336
vn 0.3852 0.9228 0.0000
vn -0.1926 0.9228 -0.3336
vn 0.1926 0.9228 -0.3336
vn -0.3852 0.9228 0.0000
vn 0.1926 0.9228 0.3336
vn -0.5630 -0.8264 0.0000
vn -0.2815 -0.8264 0.4876
vn -0.2815 -0.8264 -0.4876
vn 0.2815 -0.8264 -0.4876
vn 0.2815 -0.8264 0.4876
vn 0.5630 -0.8264 0.0000
vn 0.0000 -1.0000 0.0000
vn 0.0000 1.0000 0.0000
vn 0.0000 0.0000 1.0000
vn 1.0000 0.0000 0.0000
vn 0.0000 -0.0000 -1.0000
vn -1.0000 0.0000 0.0000
s 1
f 2/1/1 4/2/2 1/3/3
f 5/4/4 3/5/5 2/1/1
f 7/6/6 6/7/7 5/4/4
f 9/8/8 8/9/9 7/10/6
f 11/11/10 10/12/11 9/8/8
f 1/13/3 12/14/12 11/11/10
f 9/15/8 5/16/4 1/17/3
f 5/16/4 2/18/1 1/17/3
f 11/19/10 9/15/8 1/17/3
f 3/20/5 14/21/13 4/22/2
f 6/23/7 13/24/14 3/20/5
f 8/25/9 15/26/15 6/23/7
f 8/25/9 17/27/16 16/28/17
f 10/29/11 18/30/18 17/27/16
f 12/31/12 14/21/13 18/30/18
f 20/32/19 22/33/20 19/34/21
f 23/35/22 21/36/23 20/32/19
f 25/37/24 24/38/25 23/35/22
f 27/39/26 26/40/27 25/41/24
f 29/42/28 28/43/29 27/39/26
f 19/44/21 30/45/30 29/42/28
f 31/46/31 33/47/32 34/48/33
f 33/47/32 35/49/34 34/48/33
f 36/50/35 31/46/31 34/48/33
f 21/36/23 36/51/35 22/33/20
f 24/38/25 31/52/31 21/36/23
f 26/53/27 32/54/36 24/38/25
f 26/40/27 35/55/34 33/56/32
f 30/45/30 35/55/34 28/43/29
f 30/45/30 36/57/35 34/58/33
f 20/32/19 37/59/37 38/60/38
f 19/44/21 39/61/39 37/62/37
f 27/39/26 39/61/39 29/42/28
f 25/41/24 40/63/40 27/39/26
f 25/37/24 42/64/41 41/65/42
f 20/32/19 42/64/41 23/35/22
f 2/1/1 3/5/5 4/2/2
f 5/4/4 6/7/7 3/5/5
f 7/6/6 8/66/9 6/7/7
f 9/8/8 10/12/11 8/9/9
f 11/11/10 12/14/12 10/12/11
f 1/13/3 4/67/2 12/14/12
f 9/15/8 7/68/6 5/16/4
f 3/20/5 13/24/14 14/21/13
f 6/23/7 15/26/15 13/24/14
f 8/25/9 16/28/17 15/26/15
f 8/25/9 10/29/11 17/27/16
f 10/29/11 12/31/12 18/30/18
f 12/31/12 4/22/2 14/21/13
f 20/32/19 21/36/23 22/33/20
f 23/35/22 24/38/25 21/36/23
f 25/37/24 26/53/27 24/38/25
f 27/39/26 28/43/29 26/40/27
f 29/42/28 30/45/30 28/43/29
f 19/44/21 22/69/20 30/45/30
f 31/46/31 32/70/36 33/47/32
f 21/36/23 31/52/31 36/51/35
f 24/38/25 32/54/36 31/52/31
f 26/53/27 33/71/32 32/54/36
f 26/40/27 28/43/29 35/55/34
f 30/45/30 34/58/33 35/55/34
f 30/45/30 22/69/20 36/57/35
f 20/32/19 19/34/21 37/59/37
f 19/44/21 29/42/28 39/61/39
f 27/39/26 40/63/40 39/61/39
f 25/41/24 41/72/42 40/63/40
f 25/37/24 23/35/22 42/64/41
f 20/32/19 38/60/38 42/64/41
f 44/73/43 46/74/43 43/75/43
f 48/76/44 50/77/44 47/78/44
f 46/79/45 47/80/45 43/81/45
f 45/82/46 48/83/46 46/84/46
f 44/85/47 49/86/47 45/87/47
f 43/88/48 50/89/48 44/90/48
f 44/73/43 45/91/43 46/74/43
f 48/76/44 49/92/44 50/77/44
f 46/79/45 48/93/45 47/80/45
f 45/82/46 49/94/46 48/83/46
f 44/85/47 50/95/47 49/86/47
f 43/88/48 47/96/48 50/89/48
f 51/97/43 53/98/43 54/99/43
f 55/100/44 57/101/44 58/102/44
f 54/103/45 55/104/45 51/105/45
f 53/106/46 56/107/46 54/108/46
f 52/109/47 57/110/47 53/111/47
f 51/112/48 58/113/48 52/114/48
f 51/97/43 52/115/43 53/98/43
f 55/100/44 56/116/44 57/101/44
f 54/103/45 56/117/45 55/104/45
f 53/106/46 57/118/46 56/107/46
f 52/109/47 58/119/47 57/110/47
f 51/112/48 55/120/48 58/113/48
f 60/121/43 62/122/43 59/123/43
f 64/124/44 66/125/44 63/126/44
f 62/127/45 63/128/45 59/129/45
f 61/130/46 64/131/46 62/132/46
f 60/133/47 65/134/47 61/135/47
f 59/136/48 66/137/48 60/138/48
f 60/121/43 61/139/43 62/122/43
f 64/124/44 65/140/44 66/125/44
f 62/127/45 64/141/45 63/128/45
f 61/130/46 65/142/46 64/131/46
f 60/133/47 66/143/47 65/134/47
f 59/136/48 63/144/48 66/137/48
